<mxfile host="app.diagrams.net" modified="2021-03-10T01:18:35.637Z" agent="5.0 (Macintosh; Intel Mac OS X 10_15_7) AppleWebKit/537.36 (KHTML, like Gecko) Chrome/88.0.4324.192 Safari/537.36" etag="H1NfApqKEmvO1fvZo3p2" version="14.4.6" type="github" pages="2">
  <diagram id="a3wtVWC07Pv-fsc8gBxy" name="Page-1">
    <mxGraphModel dx="4978" dy="5965" grid="1" gridSize="10" guides="1" tooltips="1" connect="1" arrows="1" fold="1" page="1" pageScale="1" pageWidth="1100" pageHeight="850" math="0" shadow="0">
      <root>
        <mxCell id="0" />
        <mxCell id="1" parent="0" />
        <mxCell id="Y54M-gy7MAdl_Ur7vL2U-50" value="" style="edgeStyle=orthogonalEdgeStyle;rounded=1;orthogonalLoop=1;jettySize=auto;html=1;entryX=0.825;entryY=0.5;entryDx=0;entryDy=0;entryPerimeter=0;fillColor=#647687;strokeColor=#314354;strokeWidth=6;exitX=0.5;exitY=1;exitDx=0;exitDy=0;" edge="1" parent="1" source="Y54M-gy7MAdl_Ur7vL2U-40" target="Y54M-gy7MAdl_Ur7vL2U-87">
          <mxGeometry relative="1" as="geometry">
            <mxPoint x="-2207.55" y="-4496" as="targetPoint" />
            <Array as="points">
              <mxPoint x="-2130" y="-4432" />
            </Array>
          </mxGeometry>
        </mxCell>
        <mxCell id="Y54M-gy7MAdl_Ur7vL2U-40" value="RDM-P Plugin" style="shape=image;html=1;verticalAlign=top;verticalLabelPosition=bottom;labelBackgroundColor=#ffffff;imageAspect=0;aspect=fixed;image=https://cdn3.iconfinder.com/data/icons/humano2/128x128/mimetypes/application-x-jar.png;sketch=0;strokeColor=#000000;fillColor=#ffffff;" vertex="1" parent="1">
          <mxGeometry x="-2194" y="-4699" width="128" height="128" as="geometry" />
        </mxCell>
        <mxCell id="Y54M-gy7MAdl_Ur7vL2U-41" value="" style="shape=image;html=1;verticalAlign=top;verticalLabelPosition=bottom;labelBackgroundColor=#ffffff;imageAspect=0;aspect=fixed;image=https://cdn4.iconfinder.com/data/icons/social-network-round-gloss-shine/128/docker-icon_copy.png;sketch=0;strokeColor=#000000;fillColor=#ffffff;" vertex="1" parent="1">
          <mxGeometry x="-2291" y="-4015" width="128" height="128" as="geometry" />
        </mxCell>
        <mxCell id="Y54M-gy7MAdl_Ur7vL2U-48" value="" style="edgeStyle=orthogonalEdgeStyle;rounded=1;orthogonalLoop=1;jettySize=auto;html=1;entryX=0;entryY=0.5;entryDx=0;entryDy=0;fillColor=#647687;strokeColor=#314354;strokeWidth=6;" edge="1" parent="1" source="Y54M-gy7MAdl_Ur7vL2U-46" target="Y54M-gy7MAdl_Ur7vL2U-57">
          <mxGeometry relative="1" as="geometry">
            <mxPoint x="-2471" y="-4431" as="targetPoint" />
          </mxGeometry>
        </mxCell>
        <mxCell id="Y54M-gy7MAdl_Ur7vL2U-46" value="&lt;b&gt;Development Environment&lt;/b&gt;" style="shape=image;html=1;verticalAlign=top;verticalLabelPosition=bottom;labelBackgroundColor=#ffffff;imageAspect=0;aspect=fixed;image=https://cdn4.iconfinder.com/data/icons/technology-83/1000/code_bulb_idea_big_idea_bright_idea_idea_laptop_ide-128.png;sketch=0;strokeColor=#000000;fillColor=#ffffff;" vertex="1" parent="1">
          <mxGeometry x="-3018" y="-4572" width="278" height="278" as="geometry" />
        </mxCell>
        <mxCell id="Y54M-gy7MAdl_Ur7vL2U-53" value="" style="edgeStyle=orthogonalEdgeStyle;rounded=1;orthogonalLoop=1;jettySize=auto;html=1;entryX=0.5;entryY=0.16;entryDx=0;entryDy=0;entryPerimeter=0;exitX=0.5;exitY=1;exitDx=0;exitDy=0;strokeWidth=6;fillColor=#647687;strokeColor=#314354;" edge="1" parent="1" source="Y54M-gy7MAdl_Ur7vL2U-49" target="Y54M-gy7MAdl_Ur7vL2U-94">
          <mxGeometry relative="1" as="geometry">
            <mxPoint x="-2226.9999999999995" y="-4147" as="targetPoint" />
          </mxGeometry>
        </mxCell>
        <mxCell id="Y54M-gy7MAdl_Ur7vL2U-49" value="" style="shape=image;html=1;verticalAlign=top;verticalLabelPosition=bottom;labelBackgroundColor=#ffffff;imageAspect=0;aspect=fixed;image=https://cdn3.iconfinder.com/data/icons/humano2/128x128/mimetypes/application-x-jar.png;sketch=0;strokeColor=#000000;fillColor=#ffffff;" vertex="1" parent="1">
          <mxGeometry x="-2293" y="-4330" width="128" height="128" as="geometry" />
        </mxCell>
        <mxCell id="Y54M-gy7MAdl_Ur7vL2U-56" value="&lt;b&gt;One Docker Image&lt;br&gt;One K8s Image&lt;br&gt;in container registry&lt;br&gt;i.e ONE CONTAINER&lt;br&gt;&lt;/b&gt;" style="text;html=1;align=center;verticalAlign=middle;resizable=0;points=[];autosize=1;" vertex="1" parent="1">
          <mxGeometry x="-2450" y="-3981" width="130" height="60" as="geometry" />
        </mxCell>
        <mxCell id="Y54M-gy7MAdl_Ur7vL2U-57" value="RDM 2.0 Application&lt;br&gt;code" style="shape=image;html=1;verticalAlign=top;verticalLabelPosition=bottom;labelBackgroundColor=#ffffff;imageAspect=0;aspect=fixed;image=https://cdn1.iconfinder.com/data/icons/hawcons/32/698357-icon-78-document-file-java-128.png;sketch=0;strokeColor=#000000;fillColor=#ffffff;" vertex="1" parent="1">
          <mxGeometry x="-2621" y="-4496" width="128" height="128" as="geometry" />
        </mxCell>
        <mxCell id="Y54M-gy7MAdl_Ur7vL2U-58" value="&lt;b&gt;One packed Jar&lt;br&gt;in build repo&lt;br&gt;per Microservice ???&lt;br&gt;&lt;/b&gt;" style="text;html=1;align=center;verticalAlign=middle;resizable=0;points=[];autosize=1;" vertex="1" parent="1">
          <mxGeometry x="-2150" y="-4290" width="140" height="50" as="geometry" />
        </mxCell>
        <mxCell id="Y54M-gy7MAdl_Ur7vL2U-60" value="&lt;b&gt;&lt;font style=&quot;font-size: 72px&quot;&gt;APPROACH 1 : Build-Time code integration&amp;nbsp;&lt;br&gt;Two Codebase One Package One Container &lt;br&gt;One Pod n replication One Service&amp;nbsp;&amp;nbsp;&lt;/font&gt;&lt;/b&gt;" style="text;html=1;align=center;verticalAlign=middle;resizable=0;points=[];autosize=1;" vertex="1" parent="1">
          <mxGeometry x="-2980" y="-4970" width="1520" height="110" as="geometry" />
        </mxCell>
        <mxCell id="Y54M-gy7MAdl_Ur7vL2U-64" value="" style="edgeStyle=orthogonalEdgeStyle;rounded=1;orthogonalLoop=1;jettySize=auto;html=1;entryX=1;entryY=0.5;entryDx=0;entryDy=0;fillColor=#647687;strokeColor=#314354;strokeWidth=6;" edge="1" parent="1" source="Y54M-gy7MAdl_Ur7vL2U-62" target="Y54M-gy7MAdl_Ur7vL2U-40">
          <mxGeometry relative="1" as="geometry">
            <mxPoint x="-1961" y="-4635" as="targetPoint" />
          </mxGeometry>
        </mxCell>
        <mxCell id="Y54M-gy7MAdl_Ur7vL2U-62" value="RDM-P code" style="shape=image;html=1;verticalAlign=top;verticalLabelPosition=bottom;labelBackgroundColor=#ffffff;imageAspect=0;aspect=fixed;image=https://cdn1.iconfinder.com/data/icons/hawcons/32/698357-icon-78-document-file-java-128.png;sketch=0;strokeColor=#000000;fillColor=#ffffff;" vertex="1" parent="1">
          <mxGeometry x="-1900" y="-4700" width="128" height="128" as="geometry" />
        </mxCell>
        <mxCell id="Y54M-gy7MAdl_Ur7vL2U-67" value="" style="edgeStyle=orthogonalEdgeStyle;rounded=1;orthogonalLoop=1;jettySize=auto;html=1;fillColor=#647687;strokeColor=#314354;strokeWidth=6;" edge="1" parent="1" source="Y54M-gy7MAdl_Ur7vL2U-65" target="Y54M-gy7MAdl_Ur7vL2U-62">
          <mxGeometry relative="1" as="geometry">
            <mxPoint x="-1731" y="-4620" as="targetPoint" />
          </mxGeometry>
        </mxCell>
        <mxCell id="Y54M-gy7MAdl_Ur7vL2U-65" value="&lt;b&gt;Development Environment&lt;/b&gt;" style="shape=image;html=1;verticalAlign=top;verticalLabelPosition=bottom;labelBackgroundColor=#ffffff;imageAspect=0;aspect=fixed;image=https://cdn4.iconfinder.com/data/icons/technology-83/1000/code_bulb_idea_big_idea_bright_idea_idea_laptop_ide-128.png;sketch=0;strokeColor=#000000;fillColor=#ffffff;" vertex="1" parent="1">
          <mxGeometry x="-1641" y="-4774" width="278" height="278" as="geometry" />
        </mxCell>
        <mxCell id="Y54M-gy7MAdl_Ur7vL2U-68" value="" style="group" vertex="1" connectable="0" parent="1">
          <mxGeometry x="-2594.9966259765624" y="-3732" width="750" height="680" as="geometry" />
        </mxCell>
        <mxCell id="Y54M-gy7MAdl_Ur7vL2U-7" value="" style="shape=mxgraph.gcp.extras.blue_hexagon;html=1;fillColor=#4D4D4D;gradientColor=none;strokeColor=none;verticalLabelPosition=bottom;verticalAlign=top;align=center;fontFamily=Comic Sans MS;" vertex="1" parent="Y54M-gy7MAdl_Ur7vL2U-68">
          <mxGeometry width="750" height="680" as="geometry" />
        </mxCell>
        <mxCell id="Y54M-gy7MAdl_Ur7vL2U-9" value="" style="shape=mxgraph.gcp.extras.blue_hexagon;html=1;fillColor=#dae8fc;strokeColor=#6c8ebf;verticalLabelPosition=bottom;verticalAlign=top;align=center;fontFamily=Comic Sans MS;" vertex="1" parent="Y54M-gy7MAdl_Ur7vL2U-68">
          <mxGeometry x="194.99662597656243" y="190" width="350" height="310" as="geometry" />
        </mxCell>
        <mxCell id="Y54M-gy7MAdl_Ur7vL2U-10" value="" style="shape=mxgraph.gcp.extras.blue_hexagon;html=1;verticalLabelPosition=bottom;verticalAlign=top;align=center;fontFamily=Comic Sans MS;" vertex="1" parent="Y54M-gy7MAdl_Ur7vL2U-68">
          <mxGeometry x="219.99662597656243" y="210" width="300" height="270" as="geometry" />
        </mxCell>
        <mxCell id="Y54M-gy7MAdl_Ur7vL2U-18" value="" style="shape=image;html=1;verticalAlign=top;verticalLabelPosition=bottom;labelBackgroundColor=#ffffff;imageAspect=0;aspect=fixed;image=https://cdn0.iconfinder.com/data/icons/social-media-2127/48/social_media_social_media_logo_docker-128.png;sketch=1;" vertex="1" parent="Y54M-gy7MAdl_Ur7vL2U-68">
          <mxGeometry x="280.9966259765624" y="390" width="188" height="188" as="geometry" />
        </mxCell>
        <mxCell id="Y54M-gy7MAdl_Ur7vL2U-34" value="write" style="shape=image;html=1;verticalAlign=top;verticalLabelPosition=bottom;labelBackgroundColor=#ffffff;imageAspect=0;aspect=fixed;image=https://cdn3.iconfinder.com/data/icons/school-glyph/512/office_university_reading_knowledge_edit_pen_write_learning_study_notebook_education-128.png;sketch=0;strokeColor=#000000;fillColor=#ffffff;" vertex="1" parent="Y54M-gy7MAdl_Ur7vL2U-68">
          <mxGeometry x="384.9966259765624" y="306" width="68" height="68" as="geometry" />
        </mxCell>
        <mxCell id="Y54M-gy7MAdl_Ur7vL2U-37" value="route" style="shape=image;html=1;verticalAlign=top;verticalLabelPosition=bottom;labelBackgroundColor=#ffffff;imageAspect=0;aspect=fixed;image=https://cdn3.iconfinder.com/data/icons/arrows-396/48/arrow_route_right-128.png;sketch=0;strokeColor=#000000;fillColor=#ffffff;" vertex="1" parent="Y54M-gy7MAdl_Ur7vL2U-68">
          <mxGeometry x="264.9966259765624" y="281" width="128" height="128" as="geometry" />
        </mxCell>
        <mxCell id="Y54M-gy7MAdl_Ur7vL2U-42" value="" style="outlineConnect=0;dashed=0;verticalLabelPosition=bottom;verticalAlign=top;align=center;html=1;shape=mxgraph.aws3.android;fillColor=#EE472A;gradientColor=none;sketch=0;strokeColor=#000000;" vertex="1" parent="Y54M-gy7MAdl_Ur7vL2U-68">
          <mxGeometry x="332.2466259765624" y="222" width="73.5" height="84" as="geometry" />
        </mxCell>
        <mxCell id="Y54M-gy7MAdl_Ur7vL2U-69" value="" style="group" vertex="1" connectable="0" parent="1">
          <mxGeometry x="-2009.9966259765624" y="-3382" width="750" height="680" as="geometry" />
        </mxCell>
        <mxCell id="Y54M-gy7MAdl_Ur7vL2U-70" value="" style="shape=mxgraph.gcp.extras.blue_hexagon;html=1;fillColor=#4D4D4D;gradientColor=none;strokeColor=none;verticalLabelPosition=bottom;verticalAlign=top;align=center;fontFamily=Comic Sans MS;" vertex="1" parent="Y54M-gy7MAdl_Ur7vL2U-69">
          <mxGeometry width="750" height="680" as="geometry" />
        </mxCell>
        <mxCell id="Y54M-gy7MAdl_Ur7vL2U-71" value="" style="shape=mxgraph.gcp.extras.blue_hexagon;html=1;fillColor=#dae8fc;strokeColor=#6c8ebf;verticalLabelPosition=bottom;verticalAlign=top;align=center;fontFamily=Comic Sans MS;" vertex="1" parent="Y54M-gy7MAdl_Ur7vL2U-69">
          <mxGeometry x="194.99662597656243" y="190" width="350" height="310" as="geometry" />
        </mxCell>
        <mxCell id="Y54M-gy7MAdl_Ur7vL2U-72" value="" style="shape=mxgraph.gcp.extras.blue_hexagon;html=1;verticalLabelPosition=bottom;verticalAlign=top;align=center;fontFamily=Comic Sans MS;" vertex="1" parent="Y54M-gy7MAdl_Ur7vL2U-69">
          <mxGeometry x="219.99662597656243" y="210" width="300" height="270" as="geometry" />
        </mxCell>
        <mxCell id="Y54M-gy7MAdl_Ur7vL2U-73" value="" style="shape=image;html=1;verticalAlign=top;verticalLabelPosition=bottom;labelBackgroundColor=#ffffff;imageAspect=0;aspect=fixed;image=https://cdn0.iconfinder.com/data/icons/social-media-2127/48/social_media_social_media_logo_docker-128.png;sketch=1;" vertex="1" parent="Y54M-gy7MAdl_Ur7vL2U-69">
          <mxGeometry x="280.9966259765624" y="390" width="188" height="188" as="geometry" />
        </mxCell>
        <mxCell id="Y54M-gy7MAdl_Ur7vL2U-74" value="write" style="shape=image;html=1;verticalAlign=top;verticalLabelPosition=bottom;labelBackgroundColor=#ffffff;imageAspect=0;aspect=fixed;image=https://cdn3.iconfinder.com/data/icons/school-glyph/512/office_university_reading_knowledge_edit_pen_write_learning_study_notebook_education-128.png;sketch=0;strokeColor=#000000;fillColor=#ffffff;" vertex="1" parent="Y54M-gy7MAdl_Ur7vL2U-69">
          <mxGeometry x="384.9966259765624" y="306" width="68" height="68" as="geometry" />
        </mxCell>
        <mxCell id="Y54M-gy7MAdl_Ur7vL2U-75" value="route" style="shape=image;html=1;verticalAlign=top;verticalLabelPosition=bottom;labelBackgroundColor=#ffffff;imageAspect=0;aspect=fixed;image=https://cdn3.iconfinder.com/data/icons/arrows-396/48/arrow_route_right-128.png;sketch=0;strokeColor=#000000;fillColor=#ffffff;" vertex="1" parent="Y54M-gy7MAdl_Ur7vL2U-69">
          <mxGeometry x="264.9966259765624" y="281" width="128" height="128" as="geometry" />
        </mxCell>
        <mxCell id="Y54M-gy7MAdl_Ur7vL2U-76" value="" style="outlineConnect=0;dashed=0;verticalLabelPosition=bottom;verticalAlign=top;align=center;html=1;shape=mxgraph.aws3.android;fillColor=#EE472A;gradientColor=none;sketch=0;strokeColor=#000000;" vertex="1" parent="Y54M-gy7MAdl_Ur7vL2U-69">
          <mxGeometry x="332.2466259765624" y="222" width="73.5" height="84" as="geometry" />
        </mxCell>
        <mxCell id="Y54M-gy7MAdl_Ur7vL2U-77" value="" style="group" vertex="1" connectable="0" parent="1">
          <mxGeometry x="-3189.9966259765624" y="-3382" width="750" height="680" as="geometry" />
        </mxCell>
        <mxCell id="Y54M-gy7MAdl_Ur7vL2U-78" value="" style="shape=mxgraph.gcp.extras.blue_hexagon;html=1;fillColor=#4D4D4D;gradientColor=none;strokeColor=none;verticalLabelPosition=bottom;verticalAlign=top;align=center;fontFamily=Comic Sans MS;" vertex="1" parent="Y54M-gy7MAdl_Ur7vL2U-77">
          <mxGeometry width="750" height="680" as="geometry" />
        </mxCell>
        <mxCell id="Y54M-gy7MAdl_Ur7vL2U-79" value="" style="shape=mxgraph.gcp.extras.blue_hexagon;html=1;fillColor=#dae8fc;strokeColor=#6c8ebf;verticalLabelPosition=bottom;verticalAlign=top;align=center;fontFamily=Comic Sans MS;" vertex="1" parent="Y54M-gy7MAdl_Ur7vL2U-77">
          <mxGeometry x="194.99662597656243" y="190" width="350" height="310" as="geometry" />
        </mxCell>
        <mxCell id="Y54M-gy7MAdl_Ur7vL2U-80" value="" style="shape=mxgraph.gcp.extras.blue_hexagon;html=1;verticalLabelPosition=bottom;verticalAlign=top;align=center;fontFamily=Comic Sans MS;" vertex="1" parent="Y54M-gy7MAdl_Ur7vL2U-77">
          <mxGeometry x="219.99662597656243" y="210" width="300" height="270" as="geometry" />
        </mxCell>
        <mxCell id="Y54M-gy7MAdl_Ur7vL2U-81" value="" style="shape=image;html=1;verticalAlign=top;verticalLabelPosition=bottom;labelBackgroundColor=#ffffff;imageAspect=0;aspect=fixed;image=https://cdn0.iconfinder.com/data/icons/social-media-2127/48/social_media_social_media_logo_docker-128.png;sketch=1;" vertex="1" parent="Y54M-gy7MAdl_Ur7vL2U-77">
          <mxGeometry x="280.9966259765624" y="390" width="188" height="188" as="geometry" />
        </mxCell>
        <mxCell id="Y54M-gy7MAdl_Ur7vL2U-82" value="write" style="shape=image;html=1;verticalAlign=top;verticalLabelPosition=bottom;labelBackgroundColor=#ffffff;imageAspect=0;aspect=fixed;image=https://cdn3.iconfinder.com/data/icons/school-glyph/512/office_university_reading_knowledge_edit_pen_write_learning_study_notebook_education-128.png;sketch=0;strokeColor=#000000;fillColor=#ffffff;" vertex="1" parent="Y54M-gy7MAdl_Ur7vL2U-77">
          <mxGeometry x="384.9966259765624" y="306" width="68" height="68" as="geometry" />
        </mxCell>
        <mxCell id="Y54M-gy7MAdl_Ur7vL2U-83" value="route" style="shape=image;html=1;verticalAlign=top;verticalLabelPosition=bottom;labelBackgroundColor=#ffffff;imageAspect=0;aspect=fixed;image=https://cdn3.iconfinder.com/data/icons/arrows-396/48/arrow_route_right-128.png;sketch=0;strokeColor=#000000;fillColor=#ffffff;" vertex="1" parent="Y54M-gy7MAdl_Ur7vL2U-77">
          <mxGeometry x="264.9966259765624" y="281" width="128" height="128" as="geometry" />
        </mxCell>
        <mxCell id="Y54M-gy7MAdl_Ur7vL2U-84" value="" style="outlineConnect=0;dashed=0;verticalLabelPosition=bottom;verticalAlign=top;align=center;html=1;shape=mxgraph.aws3.android;fillColor=#EE472A;gradientColor=none;sketch=0;strokeColor=#000000;" vertex="1" parent="Y54M-gy7MAdl_Ur7vL2U-77">
          <mxGeometry x="333.2466259765624" y="222" width="73.5" height="84" as="geometry" />
        </mxCell>
        <mxCell id="Y54M-gy7MAdl_Ur7vL2U-55" value="" style="edgeStyle=orthogonalEdgeStyle;rounded=1;orthogonalLoop=1;jettySize=auto;html=1;fillColor=#647687;strokeColor=#314354;strokeWidth=6;" edge="1" parent="1" source="Y54M-gy7MAdl_Ur7vL2U-41" target="Y54M-gy7MAdl_Ur7vL2U-9">
          <mxGeometry relative="1" as="geometry">
            <mxPoint x="-2212.9999999999995" y="-3687" as="targetPoint" />
          </mxGeometry>
        </mxCell>
        <mxCell id="Y54M-gy7MAdl_Ur7vL2U-85" value="" style="rounded=1;orthogonalLoop=1;jettySize=auto;html=1;entryX=0.483;entryY=-0.07;entryDx=0;entryDy=0;entryPerimeter=0;exitX=0.25;exitY=1;exitDx=0;exitDy=0;strokeWidth=6;fillColor=#647687;strokeColor=#314354;" edge="1" parent="1" source="Y54M-gy7MAdl_Ur7vL2U-41" target="Y54M-gy7MAdl_Ur7vL2U-80">
          <mxGeometry relative="1" as="geometry">
            <mxPoint x="-2203.000000000001" y="-3757" as="sourcePoint" />
            <mxPoint x="-2202" y="-3532" as="targetPoint" />
          </mxGeometry>
        </mxCell>
        <mxCell id="Y54M-gy7MAdl_Ur7vL2U-86" value="" style="rounded=1;orthogonalLoop=1;jettySize=auto;html=1;exitX=0.75;exitY=1;exitDx=0;exitDy=0;strokeWidth=6;fillColor=#647687;strokeColor=#314354;" edge="1" parent="1" source="Y54M-gy7MAdl_Ur7vL2U-41">
          <mxGeometry relative="1" as="geometry">
            <mxPoint x="-2267" y="-3821" as="sourcePoint" />
            <mxPoint x="-1617" y="-3192" as="targetPoint" />
          </mxGeometry>
        </mxCell>
        <mxCell id="Y54M-gy7MAdl_Ur7vL2U-89" value="" style="edgeStyle=none;rounded=1;orthogonalLoop=1;jettySize=auto;html=1;fillColor=#647687;strokeColor=#314354;strokeWidth=6;" edge="1" parent="1" source="Y54M-gy7MAdl_Ur7vL2U-87" target="Y54M-gy7MAdl_Ur7vL2U-49">
          <mxGeometry relative="1" as="geometry" />
        </mxCell>
        <mxCell id="Y54M-gy7MAdl_Ur7vL2U-87" value="Cloud Build" style="html=1;fillColor=#5184F3;strokeColor=none;verticalAlign=top;labelPosition=center;verticalLabelPosition=bottom;align=center;spacingTop=-6;fontSize=11;fontStyle=1;fontColor=#999999;shape=mxgraph.gcp2.hexIcon;prIcon=container_builder;sketch=0;" vertex="1" parent="1">
          <mxGeometry x="-2262" y="-4461.25" width="66" height="58.5" as="geometry" />
        </mxCell>
        <mxCell id="Y54M-gy7MAdl_Ur7vL2U-88" value="" style="edgeStyle=orthogonalEdgeStyle;rounded=1;orthogonalLoop=1;jettySize=auto;html=1;exitX=1;exitY=0.5;exitDx=0;exitDy=0;entryX=0.175;entryY=0.5;entryDx=0;entryDy=0;entryPerimeter=0;fillColor=#647687;strokeColor=#314354;strokeWidth=6;" edge="1" parent="1" source="Y54M-gy7MAdl_Ur7vL2U-57" target="Y54M-gy7MAdl_Ur7vL2U-87">
          <mxGeometry relative="1" as="geometry">
            <mxPoint x="-2331" y="-4431" as="sourcePoint" />
            <mxPoint x="-2226.9411764705883" y="-4355" as="targetPoint" />
          </mxGeometry>
        </mxCell>
        <mxCell id="Y54M-gy7MAdl_Ur7vL2U-91" value="in central code Repo&lt;br&gt;(separate code base)" style="text;html=1;align=center;verticalAlign=middle;resizable=0;points=[];autosize=1;" vertex="1" parent="1">
          <mxGeometry x="-1902" y="-4534" width="130" height="30" as="geometry" />
        </mxCell>
        <mxCell id="Y54M-gy7MAdl_Ur7vL2U-92" value="in central code Repo&lt;br&gt;(separate code base)" style="text;html=1;align=center;verticalAlign=middle;resizable=0;points=[];autosize=1;" vertex="1" parent="1">
          <mxGeometry x="-2621" y="-4322" width="130" height="30" as="geometry" />
        </mxCell>
        <mxCell id="Y54M-gy7MAdl_Ur7vL2U-93" value="&lt;b&gt;RDM 2.0 packed Jar&lt;br&gt;in build repo&lt;br&gt;&lt;/b&gt;" style="text;html=1;align=center;verticalAlign=middle;resizable=0;points=[];autosize=1;" vertex="1" parent="1">
          <mxGeometry x="-2232" y="-4719" width="130" height="30" as="geometry" />
        </mxCell>
        <mxCell id="Y54M-gy7MAdl_Ur7vL2U-98" value="" style="edgeStyle=none;rounded=1;orthogonalLoop=1;jettySize=auto;html=1;fillColor=#647687;strokeColor=#314354;strokeWidth=6;" edge="1" parent="1" source="Y54M-gy7MAdl_Ur7vL2U-94" target="Y54M-gy7MAdl_Ur7vL2U-41">
          <mxGeometry relative="1" as="geometry">
            <mxPoint x="-2227" y="-4088.5" as="targetPoint" />
          </mxGeometry>
        </mxCell>
        <mxCell id="Y54M-gy7MAdl_Ur7vL2U-94" value="Image Build" style="html=1;fillColor=#5184F3;strokeColor=none;verticalAlign=top;labelPosition=center;verticalLabelPosition=bottom;align=center;spacingTop=-6;fontSize=11;fontStyle=1;fontColor=#999999;shape=mxgraph.gcp2.hexIcon;prIcon=container_builder;sketch=0;" vertex="1" parent="1">
          <mxGeometry x="-2262" y="-4145" width="66" height="58.5" as="geometry" />
        </mxCell>
        <mxCell id="Y54M-gy7MAdl_Ur7vL2U-101" value="&lt;b&gt;&lt;span style=&quot;font-size: 36px&quot;&gt;One exposed &lt;br&gt;Load Balanced &lt;br&gt;Service &lt;br&gt;with 1 HTTP Target Endpoint&lt;br&gt;and with n pod replication &lt;br&gt;Each pod &lt;br&gt;with one app container&lt;/span&gt;&lt;br&gt;&lt;/b&gt;" style="text;html=1;align=center;verticalAlign=middle;resizable=0;points=[];autosize=1;" vertex="1" parent="1">
          <mxGeometry x="-2470" y="-2920" width="500" height="160" as="geometry" />
        </mxCell>
        <mxCell id="Y54M-gy7MAdl_Ur7vL2U-102" value="&lt;font style=&quot;font-size: 48px&quot;&gt;1&lt;/font&gt;" style="ellipse;whiteSpace=wrap;html=1;aspect=fixed;sketch=0;fillColor=#6a00ff;fontColor=#ffffff;strokeColor=none;" vertex="1" parent="1">
          <mxGeometry x="-1852" y="-4790" width="80" height="80" as="geometry" />
        </mxCell>
        <mxCell id="Y54M-gy7MAdl_Ur7vL2U-103" value="&lt;font style=&quot;font-size: 48px&quot;&gt;2&lt;/font&gt;" style="ellipse;whiteSpace=wrap;html=1;aspect=fixed;sketch=0;fillColor=#6a00ff;fontColor=#ffffff;strokeColor=none;" vertex="1" parent="1">
          <mxGeometry x="-2740" y="-4620" width="80" height="80" as="geometry" />
        </mxCell>
        <mxCell id="Y54M-gy7MAdl_Ur7vL2U-104" value="&lt;font style=&quot;font-size: 48px&quot;&gt;3&lt;/font&gt;" style="ellipse;whiteSpace=wrap;html=1;aspect=fixed;sketch=0;fillColor=#6a00ff;fontColor=#ffffff;strokeColor=none;" vertex="1" parent="1">
          <mxGeometry x="-2550" y="-4080" width="80" height="80" as="geometry" />
        </mxCell>
        <mxCell id="Y54M-gy7MAdl_Ur7vL2U-112" value="" style="edgeStyle=none;rounded=0;orthogonalLoop=1;jettySize=auto;html=1;strokeWidth=6;fillColor=#647687;strokeColor=#314354;" edge="1" parent="1" source="Y54M-gy7MAdl_Ur7vL2U-105">
          <mxGeometry relative="1" as="geometry">
            <mxPoint x="-1390" y="-4636" as="targetPoint" />
          </mxGeometry>
        </mxCell>
        <mxCell id="Y54M-gy7MAdl_Ur7vL2U-105" value="&lt;b&gt;RDM-P team&lt;/b&gt;" style="shape=image;html=1;verticalAlign=top;verticalLabelPosition=bottom;labelBackgroundColor=#ffffff;imageAspect=0;aspect=fixed;image=https://cdn0.iconfinder.com/data/icons/simpline-mix/64/simpline_13-128.png;sketch=0;strokeColor=#000000;fillColor=#ffffff;" vertex="1" parent="1">
          <mxGeometry x="-1310" y="-4700" width="128" height="128" as="geometry" />
        </mxCell>
        <mxCell id="Y54M-gy7MAdl_Ur7vL2U-108" value="" style="edgeStyle=none;rounded=0;orthogonalLoop=1;jettySize=auto;html=1;fillColor=#647687;strokeColor=#314354;strokeWidth=6;" edge="1" parent="1" source="Y54M-gy7MAdl_Ur7vL2U-107" target="Y54M-gy7MAdl_Ur7vL2U-46">
          <mxGeometry relative="1" as="geometry" />
        </mxCell>
        <mxCell id="Y54M-gy7MAdl_Ur7vL2U-107" value="RDM 2.0 Engg Team" style="shape=image;html=1;verticalAlign=top;verticalLabelPosition=bottom;labelBackgroundColor=#ffffff;imageAspect=0;aspect=fixed;image=https://cdn0.iconfinder.com/data/icons/simpline-mix/64/simpline_12-128.png;sketch=0;strokeColor=#000000;fillColor=#ffffff;" vertex="1" parent="1">
          <mxGeometry x="-3230" y="-4495" width="128" height="128" as="geometry" />
        </mxCell>
      </root>
    </mxGraphModel>
  </diagram>
  <diagram name="Copy of Page-1" id="TdgbyeoqJt9ueaeACw3j">
    <mxGraphModel dx="5537" dy="6253" grid="1" gridSize="10" guides="1" tooltips="1" connect="1" arrows="1" fold="1" page="1" pageScale="1" pageWidth="1100" pageHeight="850" math="0" shadow="0">
      <root>
        <mxCell id="cfi_PI--tBmPsOps6Bu9-0" />
        <mxCell id="cfi_PI--tBmPsOps6Bu9-1" parent="cfi_PI--tBmPsOps6Bu9-0" />
        <mxCell id="k696c9NYCloIwaKsUdFb-11" value="" style="group" vertex="1" connectable="0" parent="cfi_PI--tBmPsOps6Bu9-1">
          <mxGeometry x="-2599.9966259765624" y="-3720" width="750" height="680" as="geometry" />
        </mxCell>
        <mxCell id="k696c9NYCloIwaKsUdFb-12" value="" style="shape=mxgraph.gcp.extras.blue_hexagon;html=1;fillColor=#4D4D4D;gradientColor=none;strokeColor=none;verticalLabelPosition=bottom;verticalAlign=top;align=center;fontFamily=Comic Sans MS;" vertex="1" parent="k696c9NYCloIwaKsUdFb-11">
          <mxGeometry width="750" height="680" as="geometry" />
        </mxCell>
        <mxCell id="k696c9NYCloIwaKsUdFb-13" value="" style="shape=mxgraph.gcp.extras.blue_hexagon;html=1;fillColor=#dae8fc;strokeColor=#6c8ebf;verticalLabelPosition=bottom;verticalAlign=top;align=center;fontFamily=Comic Sans MS;" vertex="1" parent="k696c9NYCloIwaKsUdFb-11">
          <mxGeometry x="194.99662597656243" y="190" width="350" height="310" as="geometry" />
        </mxCell>
        <mxCell id="k696c9NYCloIwaKsUdFb-14" value="" style="shape=mxgraph.gcp.extras.blue_hexagon;html=1;verticalLabelPosition=bottom;verticalAlign=top;align=center;fontFamily=Comic Sans MS;" vertex="1" parent="k696c9NYCloIwaKsUdFb-11">
          <mxGeometry x="244" y="214" width="160" height="136" as="geometry" />
        </mxCell>
        <mxCell id="k696c9NYCloIwaKsUdFb-15" value="" style="shape=image;html=1;verticalAlign=top;verticalLabelPosition=bottom;labelBackgroundColor=#ffffff;imageAspect=0;aspect=fixed;image=https://cdn0.iconfinder.com/data/icons/social-media-2127/48/social_media_social_media_logo_docker-128.png;sketch=1;" vertex="1" parent="k696c9NYCloIwaKsUdFb-11">
          <mxGeometry x="280.9966259765624" y="390" width="188" height="188" as="geometry" />
        </mxCell>
        <mxCell id="k696c9NYCloIwaKsUdFb-16" value="route" style="shape=image;html=1;verticalAlign=top;verticalLabelPosition=bottom;labelBackgroundColor=#ffffff;imageAspect=0;aspect=fixed;image=https://cdn3.iconfinder.com/data/icons/arrows-396/48/arrow_route_right-128.png;sketch=0;strokeColor=#000000;fillColor=#ffffff;" vertex="1" parent="k696c9NYCloIwaKsUdFb-11">
          <mxGeometry x="259.9966259765624" y="218" width="128" height="128" as="geometry" />
        </mxCell>
        <mxCell id="k696c9NYCloIwaKsUdFb-17" value="" style="outlineConnect=0;dashed=0;verticalLabelPosition=bottom;verticalAlign=top;align=center;html=1;shape=mxgraph.aws3.android;fillColor=#EE472A;gradientColor=none;sketch=0;strokeColor=#000000;" vertex="1" parent="k696c9NYCloIwaKsUdFb-11">
          <mxGeometry x="351.62" y="190" width="46.75" height="58" as="geometry" />
        </mxCell>
        <mxCell id="k696c9NYCloIwaKsUdFb-18" value="" style="shape=mxgraph.gcp.extras.blue_hexagon;html=1;verticalLabelPosition=bottom;verticalAlign=top;align=center;fontFamily=Comic Sans MS;" vertex="1" parent="k696c9NYCloIwaKsUdFb-11">
          <mxGeometry x="370" y="292" width="160" height="136" as="geometry" />
        </mxCell>
        <mxCell id="k696c9NYCloIwaKsUdFb-19" value="write" style="shape=image;html=1;verticalAlign=top;verticalLabelPosition=bottom;labelBackgroundColor=#ffffff;imageAspect=0;aspect=fixed;image=https://cdn3.iconfinder.com/data/icons/school-glyph/512/office_university_reading_knowledge_edit_pen_write_learning_study_notebook_education-128.png;sketch=0;strokeColor=#000000;fillColor=#ffffff;" vertex="1" parent="k696c9NYCloIwaKsUdFb-11">
          <mxGeometry x="415.9966259765624" y="332" width="68" height="68" as="geometry" />
        </mxCell>
        <mxCell id="k696c9NYCloIwaKsUdFb-20" value="" style="outlineConnect=0;dashed=0;verticalLabelPosition=bottom;verticalAlign=top;align=center;html=1;shape=mxgraph.aws3.android;fillColor=#e3c800;sketch=0;strokeColor=#B09500;fontColor=#ffffff;" vertex="1" parent="k696c9NYCloIwaKsUdFb-11">
          <mxGeometry x="469" y="272" width="46.75" height="58" as="geometry" />
        </mxCell>
        <mxCell id="cfi_PI--tBmPsOps6Bu9-2" value="" style="edgeStyle=orthogonalEdgeStyle;rounded=1;orthogonalLoop=1;jettySize=auto;html=1;entryX=0.5;entryY=0.16;entryDx=0;entryDy=0;entryPerimeter=0;fillColor=#e3c800;strokeColor=#B09500;strokeWidth=6;exitX=0.5;exitY=1;exitDx=0;exitDy=0;" edge="1" parent="cfi_PI--tBmPsOps6Bu9-1" source="cfi_PI--tBmPsOps6Bu9-3" target="k696c9NYCloIwaKsUdFb-0">
          <mxGeometry relative="1" as="geometry">
            <mxPoint x="-2207.55" y="-4496" as="targetPoint" />
            <Array as="points">
              <mxPoint x="-2030" y="-4572" />
              <mxPoint x="-2030" y="-4490" />
              <mxPoint x="-2027" y="-4490" />
            </Array>
          </mxGeometry>
        </mxCell>
        <mxCell id="cfi_PI--tBmPsOps6Bu9-3" value="RDM-P Plugin" style="shape=image;html=1;verticalAlign=top;verticalLabelPosition=bottom;labelBackgroundColor=#ffffff;imageAspect=0;aspect=fixed;image=https://cdn3.iconfinder.com/data/icons/humano2/128x128/mimetypes/application-x-jar.png;sketch=0;strokeColor=#000000;fillColor=#ffffff;" vertex="1" parent="cfi_PI--tBmPsOps6Bu9-1">
          <mxGeometry x="-2093" y="-4700" width="128" height="128" as="geometry" />
        </mxCell>
        <mxCell id="cfi_PI--tBmPsOps6Bu9-4" value="" style="shape=image;html=1;verticalAlign=top;verticalLabelPosition=bottom;labelBackgroundColor=#ffffff;imageAspect=0;aspect=fixed;image=https://cdn4.iconfinder.com/data/icons/social-network-round-gloss-shine/128/docker-icon_copy.png;sketch=0;strokeColor=#000000;fillColor=#ffffff;" vertex="1" parent="cfi_PI--tBmPsOps6Bu9-1">
          <mxGeometry x="-2291" y="-4015" width="128" height="128" as="geometry" />
        </mxCell>
        <mxCell id="cfi_PI--tBmPsOps6Bu9-5" value="" style="edgeStyle=orthogonalEdgeStyle;rounded=1;orthogonalLoop=1;jettySize=auto;html=1;entryX=0;entryY=0.5;entryDx=0;entryDy=0;fillColor=#647687;strokeColor=#314354;strokeWidth=6;" edge="1" parent="cfi_PI--tBmPsOps6Bu9-1" source="cfi_PI--tBmPsOps6Bu9-6" target="cfi_PI--tBmPsOps6Bu9-10">
          <mxGeometry relative="1" as="geometry">
            <mxPoint x="-2471" y="-4431" as="targetPoint" />
          </mxGeometry>
        </mxCell>
        <mxCell id="cfi_PI--tBmPsOps6Bu9-6" value="&lt;b&gt;Development Environment&lt;/b&gt;" style="shape=image;html=1;verticalAlign=top;verticalLabelPosition=bottom;labelBackgroundColor=#ffffff;imageAspect=0;aspect=fixed;image=https://cdn4.iconfinder.com/data/icons/technology-83/1000/code_bulb_idea_big_idea_bright_idea_idea_laptop_ide-128.png;sketch=0;strokeColor=#000000;fillColor=#ffffff;" vertex="1" parent="cfi_PI--tBmPsOps6Bu9-1">
          <mxGeometry x="-3018" y="-4572" width="278" height="278" as="geometry" />
        </mxCell>
        <mxCell id="cfi_PI--tBmPsOps6Bu9-7" value="" style="edgeStyle=orthogonalEdgeStyle;rounded=1;orthogonalLoop=1;jettySize=auto;html=1;entryX=0.5;entryY=0.16;entryDx=0;entryDy=0;entryPerimeter=0;exitX=0.5;exitY=1;exitDx=0;exitDy=0;strokeWidth=6;fillColor=#647687;strokeColor=#314354;" edge="1" parent="cfi_PI--tBmPsOps6Bu9-1" source="cfi_PI--tBmPsOps6Bu9-8" target="cfi_PI--tBmPsOps6Bu9-51">
          <mxGeometry relative="1" as="geometry">
            <mxPoint x="-2226.9999999999995" y="-4147" as="targetPoint" />
          </mxGeometry>
        </mxCell>
        <mxCell id="cfi_PI--tBmPsOps6Bu9-8" value="" style="shape=image;html=1;verticalAlign=top;verticalLabelPosition=bottom;labelBackgroundColor=#ffffff;imageAspect=0;aspect=fixed;image=https://cdn3.iconfinder.com/data/icons/humano2/128x128/mimetypes/application-x-jar.png;sketch=0;strokeColor=#000000;fillColor=#ffffff;" vertex="1" parent="cfi_PI--tBmPsOps6Bu9-1">
          <mxGeometry x="-2293" y="-4330" width="128" height="128" as="geometry" />
        </mxCell>
        <mxCell id="cfi_PI--tBmPsOps6Bu9-9" value="&lt;b&gt;Two Docker Image&lt;br&gt;(One K8s Image)&lt;br&gt;in container registry&lt;br&gt;i.e ONE CONTAINER&lt;br&gt;&lt;/b&gt;" style="text;html=1;align=center;verticalAlign=middle;resizable=0;points=[];autosize=1;" vertex="1" parent="cfi_PI--tBmPsOps6Bu9-1">
          <mxGeometry x="-2450" y="-3981" width="130" height="60" as="geometry" />
        </mxCell>
        <mxCell id="cfi_PI--tBmPsOps6Bu9-10" value="RDM 2.0 Application&lt;br&gt;code" style="shape=image;html=1;verticalAlign=top;verticalLabelPosition=bottom;labelBackgroundColor=#ffffff;imageAspect=0;aspect=fixed;image=https://cdn1.iconfinder.com/data/icons/hawcons/32/698357-icon-78-document-file-java-128.png;sketch=0;strokeColor=#000000;fillColor=#ffffff;" vertex="1" parent="cfi_PI--tBmPsOps6Bu9-1">
          <mxGeometry x="-2621" y="-4496" width="128" height="128" as="geometry" />
        </mxCell>
        <mxCell id="cfi_PI--tBmPsOps6Bu9-11" value="&lt;b&gt;Two packed Jar&lt;br&gt;in build repo&lt;br&gt;&lt;/b&gt;" style="text;html=1;align=center;verticalAlign=middle;resizable=0;points=[];autosize=1;" vertex="1" parent="cfi_PI--tBmPsOps6Bu9-1">
          <mxGeometry x="-2411" y="-4280" width="100" height="30" as="geometry" />
        </mxCell>
        <mxCell id="cfi_PI--tBmPsOps6Bu9-12" value="&lt;b&gt;&lt;font style=&quot;font-size: 72px&quot;&gt;APPROACH 2 : Two containers One POD &lt;br&gt;n replication One Service&amp;nbsp;&amp;nbsp;&lt;/font&gt;&lt;/b&gt;" style="text;html=1;align=center;verticalAlign=middle;resizable=0;points=[];autosize=1;" vertex="1" parent="cfi_PI--tBmPsOps6Bu9-1">
          <mxGeometry x="-2872" y="-5010" width="1410" height="70" as="geometry" />
        </mxCell>
        <mxCell id="cfi_PI--tBmPsOps6Bu9-13" value="" style="edgeStyle=orthogonalEdgeStyle;rounded=1;orthogonalLoop=1;jettySize=auto;html=1;entryX=1;entryY=0.5;entryDx=0;entryDy=0;fillColor=#e3c800;strokeColor=#B09500;strokeWidth=6;" edge="1" parent="cfi_PI--tBmPsOps6Bu9-1" source="cfi_PI--tBmPsOps6Bu9-14" target="cfi_PI--tBmPsOps6Bu9-3">
          <mxGeometry relative="1" as="geometry">
            <mxPoint x="-1961" y="-4635" as="targetPoint" />
          </mxGeometry>
        </mxCell>
        <mxCell id="cfi_PI--tBmPsOps6Bu9-14" value="RDM-P code" style="shape=image;html=1;verticalAlign=top;verticalLabelPosition=bottom;labelBackgroundColor=#ffffff;imageAspect=0;aspect=fixed;image=https://cdn1.iconfinder.com/data/icons/hawcons/32/698357-icon-78-document-file-java-128.png;sketch=0;strokeColor=#000000;fillColor=#ffffff;" vertex="1" parent="cfi_PI--tBmPsOps6Bu9-1">
          <mxGeometry x="-1830" y="-4700" width="128" height="128" as="geometry" />
        </mxCell>
        <mxCell id="cfi_PI--tBmPsOps6Bu9-15" value="" style="edgeStyle=orthogonalEdgeStyle;rounded=1;orthogonalLoop=1;jettySize=auto;html=1;fillColor=#647687;strokeColor=#314354;strokeWidth=6;" edge="1" parent="cfi_PI--tBmPsOps6Bu9-1" source="cfi_PI--tBmPsOps6Bu9-16" target="cfi_PI--tBmPsOps6Bu9-14">
          <mxGeometry relative="1" as="geometry">
            <mxPoint x="-1731" y="-4620" as="targetPoint" />
          </mxGeometry>
        </mxCell>
        <mxCell id="k696c9NYCloIwaKsUdFb-34" value="" style="edgeStyle=none;rounded=1;orthogonalLoop=1;jettySize=auto;html=1;strokeWidth=6;fillColor=#e3c800;strokeColor=#B09500;" edge="1" parent="cfi_PI--tBmPsOps6Bu9-1" source="cfi_PI--tBmPsOps6Bu9-16" target="cfi_PI--tBmPsOps6Bu9-14">
          <mxGeometry relative="1" as="geometry" />
        </mxCell>
        <mxCell id="cfi_PI--tBmPsOps6Bu9-16" value="&lt;b&gt;Development Environment&lt;/b&gt;" style="shape=image;html=1;verticalAlign=top;verticalLabelPosition=bottom;labelBackgroundColor=#ffffff;imageAspect=0;aspect=fixed;image=https://cdn4.iconfinder.com/data/icons/technology-83/1000/code_bulb_idea_big_idea_bright_idea_idea_laptop_ide-128.png;sketch=0;strokeColor=#000000;fillColor=#ffffff;" vertex="1" parent="cfi_PI--tBmPsOps6Bu9-1">
          <mxGeometry x="-1641" y="-4774" width="278" height="278" as="geometry" />
        </mxCell>
        <mxCell id="cfi_PI--tBmPsOps6Bu9-33" value="" style="group" vertex="1" connectable="0" parent="cfi_PI--tBmPsOps6Bu9-1">
          <mxGeometry x="-3189.9966259765624" y="-3382" width="750" height="680" as="geometry" />
        </mxCell>
        <mxCell id="cfi_PI--tBmPsOps6Bu9-34" value="" style="shape=mxgraph.gcp.extras.blue_hexagon;html=1;fillColor=#4D4D4D;gradientColor=none;strokeColor=none;verticalLabelPosition=bottom;verticalAlign=top;align=center;fontFamily=Comic Sans MS;" vertex="1" parent="cfi_PI--tBmPsOps6Bu9-33">
          <mxGeometry width="750" height="680" as="geometry" />
        </mxCell>
        <mxCell id="cfi_PI--tBmPsOps6Bu9-35" value="" style="shape=mxgraph.gcp.extras.blue_hexagon;html=1;fillColor=#dae8fc;strokeColor=#6c8ebf;verticalLabelPosition=bottom;verticalAlign=top;align=center;fontFamily=Comic Sans MS;" vertex="1" parent="cfi_PI--tBmPsOps6Bu9-33">
          <mxGeometry x="194.99662597656243" y="190" width="350" height="310" as="geometry" />
        </mxCell>
        <mxCell id="cfi_PI--tBmPsOps6Bu9-36" value="" style="shape=mxgraph.gcp.extras.blue_hexagon;html=1;verticalLabelPosition=bottom;verticalAlign=top;align=center;fontFamily=Comic Sans MS;" vertex="1" parent="cfi_PI--tBmPsOps6Bu9-33">
          <mxGeometry x="244" y="214" width="160" height="136" as="geometry" />
        </mxCell>
        <mxCell id="cfi_PI--tBmPsOps6Bu9-37" value="" style="shape=image;html=1;verticalAlign=top;verticalLabelPosition=bottom;labelBackgroundColor=#ffffff;imageAspect=0;aspect=fixed;image=https://cdn0.iconfinder.com/data/icons/social-media-2127/48/social_media_social_media_logo_docker-128.png;sketch=1;" vertex="1" parent="cfi_PI--tBmPsOps6Bu9-33">
          <mxGeometry x="280.9966259765624" y="390" width="188" height="188" as="geometry" />
        </mxCell>
        <mxCell id="cfi_PI--tBmPsOps6Bu9-39" value="route" style="shape=image;html=1;verticalAlign=top;verticalLabelPosition=bottom;labelBackgroundColor=#ffffff;imageAspect=0;aspect=fixed;image=https://cdn3.iconfinder.com/data/icons/arrows-396/48/arrow_route_right-128.png;sketch=0;strokeColor=#000000;fillColor=#ffffff;" vertex="1" parent="cfi_PI--tBmPsOps6Bu9-33">
          <mxGeometry x="259.9966259765624" y="218" width="128" height="128" as="geometry" />
        </mxCell>
        <mxCell id="cfi_PI--tBmPsOps6Bu9-40" value="" style="outlineConnect=0;dashed=0;verticalLabelPosition=bottom;verticalAlign=top;align=center;html=1;shape=mxgraph.aws3.android;fillColor=#EE472A;gradientColor=none;sketch=0;strokeColor=#000000;" vertex="1" parent="cfi_PI--tBmPsOps6Bu9-33">
          <mxGeometry x="351.62" y="190" width="46.75" height="58" as="geometry" />
        </mxCell>
        <mxCell id="k696c9NYCloIwaKsUdFb-8" value="" style="shape=mxgraph.gcp.extras.blue_hexagon;html=1;verticalLabelPosition=bottom;verticalAlign=top;align=center;fontFamily=Comic Sans MS;" vertex="1" parent="cfi_PI--tBmPsOps6Bu9-33">
          <mxGeometry x="370" y="292" width="160" height="136" as="geometry" />
        </mxCell>
        <mxCell id="cfi_PI--tBmPsOps6Bu9-38" value="write" style="shape=image;html=1;verticalAlign=top;verticalLabelPosition=bottom;labelBackgroundColor=#ffffff;imageAspect=0;aspect=fixed;image=https://cdn3.iconfinder.com/data/icons/school-glyph/512/office_university_reading_knowledge_edit_pen_write_learning_study_notebook_education-128.png;sketch=0;strokeColor=#000000;fillColor=#ffffff;" vertex="1" parent="cfi_PI--tBmPsOps6Bu9-33">
          <mxGeometry x="415.9966259765624" y="332" width="68" height="68" as="geometry" />
        </mxCell>
        <mxCell id="k696c9NYCloIwaKsUdFb-9" value="" style="outlineConnect=0;dashed=0;verticalLabelPosition=bottom;verticalAlign=top;align=center;html=1;shape=mxgraph.aws3.android;fillColor=#e3c800;sketch=0;strokeColor=#B09500;fontColor=#ffffff;" vertex="1" parent="cfi_PI--tBmPsOps6Bu9-33">
          <mxGeometry x="469" y="272" width="46.75" height="58" as="geometry" />
        </mxCell>
        <mxCell id="cfi_PI--tBmPsOps6Bu9-42" value="" style="rounded=1;orthogonalLoop=1;jettySize=auto;html=1;entryX=0.5;entryY=0;entryDx=0;entryDy=0;entryPerimeter=0;exitX=0.5;exitY=1;exitDx=0;exitDy=0;strokeWidth=6;fillColor=#647687;strokeColor=#314354;" edge="1" parent="cfi_PI--tBmPsOps6Bu9-1" source="cfi_PI--tBmPsOps6Bu9-4" target="cfi_PI--tBmPsOps6Bu9-40">
          <mxGeometry relative="1" as="geometry">
            <mxPoint x="-2203.000000000001" y="-3757" as="sourcePoint" />
            <mxPoint x="-2202" y="-3532" as="targetPoint" />
          </mxGeometry>
        </mxCell>
        <mxCell id="cfi_PI--tBmPsOps6Bu9-44" value="" style="edgeStyle=none;rounded=1;orthogonalLoop=1;jettySize=auto;html=1;fillColor=#647687;strokeColor=#314354;strokeWidth=6;" edge="1" parent="cfi_PI--tBmPsOps6Bu9-1" source="cfi_PI--tBmPsOps6Bu9-45" target="cfi_PI--tBmPsOps6Bu9-8">
          <mxGeometry relative="1" as="geometry" />
        </mxCell>
        <mxCell id="cfi_PI--tBmPsOps6Bu9-45" value="Cloud Build" style="html=1;fillColor=#5184F3;strokeColor=none;verticalAlign=top;labelPosition=center;verticalLabelPosition=bottom;align=center;spacingTop=-6;fontSize=11;fontStyle=1;fontColor=#999999;shape=mxgraph.gcp2.hexIcon;prIcon=container_builder;sketch=0;" vertex="1" parent="cfi_PI--tBmPsOps6Bu9-1">
          <mxGeometry x="-2262" y="-4461.25" width="66" height="58.5" as="geometry" />
        </mxCell>
        <mxCell id="cfi_PI--tBmPsOps6Bu9-46" value="" style="edgeStyle=orthogonalEdgeStyle;rounded=1;orthogonalLoop=1;jettySize=auto;html=1;exitX=1;exitY=0.5;exitDx=0;exitDy=0;entryX=0.175;entryY=0.5;entryDx=0;entryDy=0;entryPerimeter=0;fillColor=#647687;strokeColor=#314354;strokeWidth=6;" edge="1" parent="cfi_PI--tBmPsOps6Bu9-1" source="cfi_PI--tBmPsOps6Bu9-10" target="cfi_PI--tBmPsOps6Bu9-45">
          <mxGeometry relative="1" as="geometry">
            <mxPoint x="-2331" y="-4431" as="sourcePoint" />
            <mxPoint x="-2226.9411764705883" y="-4355" as="targetPoint" />
          </mxGeometry>
        </mxCell>
        <mxCell id="cfi_PI--tBmPsOps6Bu9-47" value="in central code Repo&lt;br&gt;(separate code base)" style="text;html=1;align=center;verticalAlign=middle;resizable=0;points=[];autosize=1;" vertex="1" parent="cfi_PI--tBmPsOps6Bu9-1">
          <mxGeometry x="-1902" y="-4534" width="130" height="30" as="geometry" />
        </mxCell>
        <mxCell id="cfi_PI--tBmPsOps6Bu9-48" value="in central code Repo&lt;br&gt;(separate code base)" style="text;html=1;align=center;verticalAlign=middle;resizable=0;points=[];autosize=1;" vertex="1" parent="cfi_PI--tBmPsOps6Bu9-1">
          <mxGeometry x="-2621" y="-4322" width="130" height="30" as="geometry" />
        </mxCell>
        <mxCell id="cfi_PI--tBmPsOps6Bu9-49" value="&lt;b&gt;RDM 2.0 packed Jar&lt;br&gt;in build repo&lt;br&gt;&lt;/b&gt;" style="text;html=1;align=center;verticalAlign=middle;resizable=0;points=[];autosize=1;" vertex="1" parent="cfi_PI--tBmPsOps6Bu9-1">
          <mxGeometry x="-2131" y="-4720" width="130" height="30" as="geometry" />
        </mxCell>
        <mxCell id="cfi_PI--tBmPsOps6Bu9-50" value="" style="edgeStyle=none;rounded=1;orthogonalLoop=1;jettySize=auto;html=1;fillColor=#647687;strokeColor=#314354;strokeWidth=6;" edge="1" parent="cfi_PI--tBmPsOps6Bu9-1" source="cfi_PI--tBmPsOps6Bu9-51" target="cfi_PI--tBmPsOps6Bu9-4">
          <mxGeometry relative="1" as="geometry">
            <mxPoint x="-2227" y="-4088.5" as="targetPoint" />
          </mxGeometry>
        </mxCell>
        <mxCell id="cfi_PI--tBmPsOps6Bu9-51" value="Image Build" style="html=1;fillColor=#5184F3;strokeColor=none;verticalAlign=top;labelPosition=center;verticalLabelPosition=bottom;align=center;spacingTop=-6;fontSize=11;fontStyle=1;fontColor=#999999;shape=mxgraph.gcp2.hexIcon;prIcon=container_builder;sketch=0;" vertex="1" parent="cfi_PI--tBmPsOps6Bu9-1">
          <mxGeometry x="-2262" y="-4145" width="66" height="58.5" as="geometry" />
        </mxCell>
        <mxCell id="cfi_PI--tBmPsOps6Bu9-53" value="&lt;font style=&quot;font-size: 48px&quot;&gt;1&lt;/font&gt;" style="ellipse;whiteSpace=wrap;html=1;aspect=fixed;sketch=0;fillColor=#6a00ff;fontColor=#ffffff;strokeColor=none;" vertex="1" parent="cfi_PI--tBmPsOps6Bu9-1">
          <mxGeometry x="-1850" y="-4854" width="80" height="80" as="geometry" />
        </mxCell>
        <mxCell id="cfi_PI--tBmPsOps6Bu9-54" value="&lt;font style=&quot;font-size: 48px&quot;&gt;2&lt;/font&gt;" style="ellipse;whiteSpace=wrap;html=1;aspect=fixed;sketch=0;fillColor=#6a00ff;fontColor=#ffffff;strokeColor=none;" vertex="1" parent="cfi_PI--tBmPsOps6Bu9-1">
          <mxGeometry x="-2740" y="-4620" width="80" height="80" as="geometry" />
        </mxCell>
        <mxCell id="cfi_PI--tBmPsOps6Bu9-55" value="&lt;font style=&quot;font-size: 48px&quot;&gt;3&lt;/font&gt;" style="ellipse;whiteSpace=wrap;html=1;aspect=fixed;sketch=0;fillColor=#6a00ff;fontColor=#ffffff;strokeColor=none;" vertex="1" parent="cfi_PI--tBmPsOps6Bu9-1">
          <mxGeometry x="-2550" y="-4080" width="80" height="80" as="geometry" />
        </mxCell>
        <mxCell id="cfi_PI--tBmPsOps6Bu9-56" value="" style="edgeStyle=none;rounded=0;orthogonalLoop=1;jettySize=auto;html=1;strokeWidth=6;fillColor=#e3c800;strokeColor=#B09500;" edge="1" parent="cfi_PI--tBmPsOps6Bu9-1" source="cfi_PI--tBmPsOps6Bu9-57">
          <mxGeometry relative="1" as="geometry">
            <mxPoint x="-1390" y="-4636" as="targetPoint" />
          </mxGeometry>
        </mxCell>
        <mxCell id="cfi_PI--tBmPsOps6Bu9-57" value="&lt;b&gt;RDM-P team&lt;/b&gt;" style="shape=image;html=1;verticalAlign=top;verticalLabelPosition=bottom;labelBackgroundColor=#ffffff;imageAspect=0;aspect=fixed;image=https://cdn0.iconfinder.com/data/icons/simpline-mix/64/simpline_13-128.png;sketch=0;strokeColor=#000000;fillColor=#ffffff;" vertex="1" parent="cfi_PI--tBmPsOps6Bu9-1">
          <mxGeometry x="-1310" y="-4700" width="128" height="128" as="geometry" />
        </mxCell>
        <mxCell id="cfi_PI--tBmPsOps6Bu9-58" value="" style="edgeStyle=none;rounded=0;orthogonalLoop=1;jettySize=auto;html=1;fillColor=#647687;strokeColor=#314354;strokeWidth=6;" edge="1" parent="cfi_PI--tBmPsOps6Bu9-1" source="cfi_PI--tBmPsOps6Bu9-59" target="cfi_PI--tBmPsOps6Bu9-6">
          <mxGeometry relative="1" as="geometry" />
        </mxCell>
        <mxCell id="cfi_PI--tBmPsOps6Bu9-59" value="RDM 2.0 Engg Team" style="shape=image;html=1;verticalAlign=top;verticalLabelPosition=bottom;labelBackgroundColor=#ffffff;imageAspect=0;aspect=fixed;image=https://cdn0.iconfinder.com/data/icons/simpline-mix/64/simpline_12-128.png;sketch=0;strokeColor=#000000;fillColor=#ffffff;" vertex="1" parent="cfi_PI--tBmPsOps6Bu9-1">
          <mxGeometry x="-3230" y="-4495" width="128" height="128" as="geometry" />
        </mxCell>
        <mxCell id="k696c9NYCloIwaKsUdFb-2" value="" style="edgeStyle=none;rounded=1;orthogonalLoop=1;jettySize=auto;html=1;strokeWidth=6;fillColor=#e3c800;strokeColor=#B09500;" edge="1" parent="cfi_PI--tBmPsOps6Bu9-1" source="k696c9NYCloIwaKsUdFb-0" target="k696c9NYCloIwaKsUdFb-1">
          <mxGeometry relative="1" as="geometry" />
        </mxCell>
        <mxCell id="k696c9NYCloIwaKsUdFb-0" value="Cloud Build" style="html=1;fillColor=#5184F3;strokeColor=none;verticalAlign=top;labelPosition=center;verticalLabelPosition=bottom;align=center;spacingTop=-6;fontSize=11;fontStyle=1;fontColor=#999999;shape=mxgraph.gcp2.hexIcon;prIcon=container_builder;sketch=0;" vertex="1" parent="cfi_PI--tBmPsOps6Bu9-1">
          <mxGeometry x="-2060" y="-4462.25" width="66" height="58.5" as="geometry" />
        </mxCell>
        <mxCell id="k696c9NYCloIwaKsUdFb-6" value="" style="edgeStyle=none;rounded=1;orthogonalLoop=1;jettySize=auto;html=1;strokeWidth=6;fillColor=#e3c800;strokeColor=#B09500;" edge="1" parent="cfi_PI--tBmPsOps6Bu9-1" source="k696c9NYCloIwaKsUdFb-1" target="k696c9NYCloIwaKsUdFb-5">
          <mxGeometry relative="1" as="geometry" />
        </mxCell>
        <mxCell id="k696c9NYCloIwaKsUdFb-1" value="" style="shape=image;html=1;verticalAlign=top;verticalLabelPosition=bottom;labelBackgroundColor=#ffffff;imageAspect=0;aspect=fixed;image=https://cdn3.iconfinder.com/data/icons/humano2/128x128/mimetypes/application-x-jar.png;sketch=0;strokeColor=#000000;fillColor=#ffffff;" vertex="1" parent="cfi_PI--tBmPsOps6Bu9-1">
          <mxGeometry x="-2091" y="-4329" width="128" height="128" as="geometry" />
        </mxCell>
        <mxCell id="k696c9NYCloIwaKsUdFb-3" value="" style="shape=image;html=1;verticalAlign=top;verticalLabelPosition=bottom;labelBackgroundColor=#ffffff;imageAspect=0;aspect=fixed;image=https://cdn4.iconfinder.com/data/icons/social-network-round-gloss-shine/128/docker-icon_copy.png;sketch=0;strokeColor=#000000;fillColor=#ffffff;" vertex="1" parent="cfi_PI--tBmPsOps6Bu9-1">
          <mxGeometry x="-2091" y="-4015" width="128" height="128" as="geometry" />
        </mxCell>
        <mxCell id="k696c9NYCloIwaKsUdFb-4" value="" style="edgeStyle=none;rounded=1;orthogonalLoop=1;jettySize=auto;html=1;fillColor=#e3c800;strokeColor=#B09500;strokeWidth=6;" edge="1" parent="cfi_PI--tBmPsOps6Bu9-1" source="k696c9NYCloIwaKsUdFb-5" target="k696c9NYCloIwaKsUdFb-3">
          <mxGeometry relative="1" as="geometry">
            <mxPoint x="-2027" y="-4088.5" as="targetPoint" />
          </mxGeometry>
        </mxCell>
        <mxCell id="k696c9NYCloIwaKsUdFb-5" value="Image Build" style="html=1;fillColor=#5184F3;strokeColor=none;verticalAlign=top;labelPosition=center;verticalLabelPosition=bottom;align=center;spacingTop=-6;fontSize=11;fontStyle=1;fontColor=#999999;shape=mxgraph.gcp2.hexIcon;prIcon=container_builder;sketch=0;" vertex="1" parent="cfi_PI--tBmPsOps6Bu9-1">
          <mxGeometry x="-2062" y="-4145" width="66" height="58.5" as="geometry" />
        </mxCell>
        <mxCell id="cfi_PI--tBmPsOps6Bu9-41" value="" style="edgeStyle=orthogonalEdgeStyle;rounded=1;orthogonalLoop=1;jettySize=auto;html=1;fillColor=#647687;strokeColor=#314354;strokeWidth=6;entryX=0.5;entryY=0;entryDx=0;entryDy=0;entryPerimeter=0;" edge="1" parent="cfi_PI--tBmPsOps6Bu9-1" source="cfi_PI--tBmPsOps6Bu9-4" target="k696c9NYCloIwaKsUdFb-17">
          <mxGeometry relative="1" as="geometry">
            <mxPoint x="-2225" y="-3542" as="targetPoint" />
          </mxGeometry>
        </mxCell>
        <mxCell id="k696c9NYCloIwaKsUdFb-10" value="" style="rounded=1;orthogonalLoop=1;jettySize=auto;html=1;exitX=0.5;exitY=1;exitDx=0;exitDy=0;strokeWidth=6;fillColor=#e3c800;strokeColor=#B09500;" edge="1" parent="cfi_PI--tBmPsOps6Bu9-1" source="k696c9NYCloIwaKsUdFb-3" target="k696c9NYCloIwaKsUdFb-8">
          <mxGeometry relative="1" as="geometry">
            <mxPoint x="-2249" y="-3877" as="sourcePoint" />
            <mxPoint x="-2858.716625976562" y="-3167.5199999999995" as="targetPoint" />
          </mxGeometry>
        </mxCell>
        <mxCell id="k696c9NYCloIwaKsUdFb-21" value="" style="group" vertex="1" connectable="0" parent="cfi_PI--tBmPsOps6Bu9-1">
          <mxGeometry x="-2024.9966259765624" y="-3350" width="750" height="680" as="geometry" />
        </mxCell>
        <mxCell id="k696c9NYCloIwaKsUdFb-22" value="" style="shape=mxgraph.gcp.extras.blue_hexagon;html=1;fillColor=#4D4D4D;gradientColor=none;strokeColor=none;verticalLabelPosition=bottom;verticalAlign=top;align=center;fontFamily=Comic Sans MS;" vertex="1" parent="k696c9NYCloIwaKsUdFb-21">
          <mxGeometry width="750" height="680" as="geometry" />
        </mxCell>
        <mxCell id="k696c9NYCloIwaKsUdFb-23" value="" style="shape=mxgraph.gcp.extras.blue_hexagon;html=1;fillColor=#dae8fc;strokeColor=#6c8ebf;verticalLabelPosition=bottom;verticalAlign=top;align=center;fontFamily=Comic Sans MS;" vertex="1" parent="k696c9NYCloIwaKsUdFb-21">
          <mxGeometry x="194.99662597656243" y="190" width="350" height="310" as="geometry" />
        </mxCell>
        <mxCell id="k696c9NYCloIwaKsUdFb-24" value="" style="shape=mxgraph.gcp.extras.blue_hexagon;html=1;verticalLabelPosition=bottom;verticalAlign=top;align=center;fontFamily=Comic Sans MS;" vertex="1" parent="k696c9NYCloIwaKsUdFb-21">
          <mxGeometry x="244" y="214" width="160" height="136" as="geometry" />
        </mxCell>
        <mxCell id="k696c9NYCloIwaKsUdFb-25" value="" style="shape=image;html=1;verticalAlign=top;verticalLabelPosition=bottom;labelBackgroundColor=#ffffff;imageAspect=0;aspect=fixed;image=https://cdn0.iconfinder.com/data/icons/social-media-2127/48/social_media_social_media_logo_docker-128.png;sketch=1;" vertex="1" parent="k696c9NYCloIwaKsUdFb-21">
          <mxGeometry x="280.9966259765624" y="390" width="188" height="188" as="geometry" />
        </mxCell>
        <mxCell id="k696c9NYCloIwaKsUdFb-26" value="route" style="shape=image;html=1;verticalAlign=top;verticalLabelPosition=bottom;labelBackgroundColor=#ffffff;imageAspect=0;aspect=fixed;image=https://cdn3.iconfinder.com/data/icons/arrows-396/48/arrow_route_right-128.png;sketch=0;strokeColor=#000000;fillColor=#ffffff;" vertex="1" parent="k696c9NYCloIwaKsUdFb-21">
          <mxGeometry x="259.9966259765624" y="218" width="128" height="128" as="geometry" />
        </mxCell>
        <mxCell id="k696c9NYCloIwaKsUdFb-27" value="" style="outlineConnect=0;dashed=0;verticalLabelPosition=bottom;verticalAlign=top;align=center;html=1;shape=mxgraph.aws3.android;fillColor=#EE472A;gradientColor=none;sketch=0;strokeColor=#000000;" vertex="1" parent="k696c9NYCloIwaKsUdFb-21">
          <mxGeometry x="351.62" y="190" width="46.75" height="58" as="geometry" />
        </mxCell>
        <mxCell id="k696c9NYCloIwaKsUdFb-28" value="" style="shape=mxgraph.gcp.extras.blue_hexagon;html=1;verticalLabelPosition=bottom;verticalAlign=top;align=center;fontFamily=Comic Sans MS;" vertex="1" parent="k696c9NYCloIwaKsUdFb-21">
          <mxGeometry x="370" y="292" width="160" height="136" as="geometry" />
        </mxCell>
        <mxCell id="k696c9NYCloIwaKsUdFb-29" value="write" style="shape=image;html=1;verticalAlign=top;verticalLabelPosition=bottom;labelBackgroundColor=#ffffff;imageAspect=0;aspect=fixed;image=https://cdn3.iconfinder.com/data/icons/school-glyph/512/office_university_reading_knowledge_edit_pen_write_learning_study_notebook_education-128.png;sketch=0;strokeColor=#000000;fillColor=#ffffff;" vertex="1" parent="k696c9NYCloIwaKsUdFb-21">
          <mxGeometry x="415.9966259765624" y="332" width="68" height="68" as="geometry" />
        </mxCell>
        <mxCell id="k696c9NYCloIwaKsUdFb-30" value="" style="outlineConnect=0;dashed=0;verticalLabelPosition=bottom;verticalAlign=top;align=center;html=1;shape=mxgraph.aws3.android;fillColor=#e3c800;sketch=0;strokeColor=#B09500;fontColor=#ffffff;" vertex="1" parent="k696c9NYCloIwaKsUdFb-21">
          <mxGeometry x="469" y="272" width="46.75" height="58" as="geometry" />
        </mxCell>
        <mxCell id="cfi_PI--tBmPsOps6Bu9-43" value="" style="rounded=1;orthogonalLoop=1;jettySize=auto;html=1;exitX=0.5;exitY=1;exitDx=0;exitDy=0;strokeWidth=6;fillColor=#647687;strokeColor=#314354;entryX=0.5;entryY=0;entryDx=0;entryDy=0;entryPerimeter=0;" edge="1" parent="cfi_PI--tBmPsOps6Bu9-1" source="cfi_PI--tBmPsOps6Bu9-4" target="k696c9NYCloIwaKsUdFb-27">
          <mxGeometry relative="1" as="geometry">
            <mxPoint x="-2267" y="-3821" as="sourcePoint" />
            <mxPoint x="-1617" y="-3192" as="targetPoint" />
          </mxGeometry>
        </mxCell>
        <mxCell id="k696c9NYCloIwaKsUdFb-31" value="" style="rounded=1;orthogonalLoop=1;jettySize=auto;html=1;strokeWidth=6;fillColor=#e3c800;strokeColor=#B09500;entryX=0;entryY=0.5;entryDx=0;entryDy=0;entryPerimeter=0;exitX=0.5;exitY=1;exitDx=0;exitDy=0;" edge="1" parent="cfi_PI--tBmPsOps6Bu9-1" source="k696c9NYCloIwaKsUdFb-3" target="k696c9NYCloIwaKsUdFb-30">
          <mxGeometry relative="1" as="geometry">
            <mxPoint x="-2017" y="-3877" as="sourcePoint" />
            <mxPoint x="-2673.9460241656884" y="-3080" as="targetPoint" />
          </mxGeometry>
        </mxCell>
        <mxCell id="k696c9NYCloIwaKsUdFb-32" value="" style="rounded=1;orthogonalLoop=1;jettySize=auto;html=1;exitX=0.5;exitY=1;exitDx=0;exitDy=0;strokeWidth=6;fillColor=#e3c800;strokeColor=#B09500;" edge="1" parent="cfi_PI--tBmPsOps6Bu9-1" source="k696c9NYCloIwaKsUdFb-3" target="k696c9NYCloIwaKsUdFb-18">
          <mxGeometry relative="1" as="geometry">
            <mxPoint x="-1984.9999999999995" y="-3877" as="sourcePoint" />
            <mxPoint x="-1545.9966259765624" y="-3039" as="targetPoint" />
          </mxGeometry>
        </mxCell>
      </root>
    </mxGraphModel>
  </diagram>
</mxfile>
